<svg width="743" height="743" xmlns="http://www.w3.org/2000/svg" xmlns:xlink="http://www.w3.org/1999/xlink" xml:space="preserve" overflow="hidden"><defs><filter id="fx0" x="-10%" y="-10%" width="120%" height="120%" filterUnits="userSpaceOnUse" primitiveUnits="userSpaceOnUse"><feComponentTransfer color-interpolation-filters="sRGB"><feFuncR type="discrete" tableValues="0 0"/><feFuncG type="discrete" tableValues="0 0"/><feFuncB type="discrete" tableValues="0 0"/><feFuncA type="linear" slope="0.4" intercept="0"/></feComponentTransfer><feGaussianBlur stdDeviation="6.11111 6.11111"/></filter><clipPath id="clip1"><rect x="183" y="226" width="743" height="743"/></clipPath></defs><g clip-path="url(#clip1)" transform="translate(-183 -226)"><path d="M248.559 226 183 226 183 969 926 969 926 903.441 248.559 903.441 248.559 226Z" fill="#E74C3C" fill-rule="evenodd"/><path d="M401 805C401 829.301 381.524 849 357.5 849 333.476 849 314 829.301 314 805 314 780.7 333.476 761 357.5 761 381.524 761 401 780.7 401 805Z" fill="#E74C3C" fill-rule="evenodd"/><path d="M445 663C445 687.301 425.524 707 401.5 707 377.476 707 358 687.301 358 663 358 638.7 377.476 619 401.5 619 425.524 619 445 638.7 445 663Z" fill="#E74C3C" fill-rule="evenodd"/><path d="M598 684.5C598 708.524 578.524 728 554.5 728 530.476 728 511 708.524 511 684.5 511 660.476 530.476 641 554.5 641 578.524 641 598 660.476 598 684.5Z" fill="#E74C3C" fill-rule="evenodd"/><path d="M598 532C598 556.301 578.524 576 554.5 576 530.476 576 511 556.301 511 532 511 507.7 530.476 488 554.5 488 578.524 488 598 507.7 598 532Z" fill="#E74C3C" fill-rule="evenodd"/><path d="M740 488.5C740 512.524 720.524 532 696.5 532 672.476 532 653 512.524 653 488.5 653 464.476 672.476 445 696.5 445 720.524 445 740 464.476 740 488.5Z" fill="#E74C3C" fill-rule="evenodd"/><path d="M893 488.5C893 512.524 873.301 532 849 532 824.7 532 805 512.524 805 488.5 805 464.476 824.7 445 849 445 873.301 445 893 464.476 893 488.5Z" fill="#E74C3C" fill-rule="evenodd"/><path d="M893 324.5C893 348.524 873.301 368 849 368 824.7 368 805 348.524 805 324.5 805 300.476 824.7 281 849 281 873.301 281 893 300.476 893 324.5Z" fill="#E74C3C" fill-rule="evenodd"/><g filter="url(#fx0)" transform="translate(273 347)"><g><path d="M0 0 587.157 447.393" stroke="#E74C3C" stroke-width="21" stroke-linejoin="round" stroke-miterlimit="10" stroke-dasharray="82.5 61.875" fill="none" fill-rule="evenodd" transform="matrix(1 0 0 -1 26.2227 477.615)"/></g></g><path d="M0 0 587.157 447.393" stroke="#E74C3C" stroke-width="20.625" stroke-linejoin="round" stroke-miterlimit="10" stroke-dasharray="82.5 61.875" fill="none" fill-rule="evenodd" transform="matrix(1 0 0 -1 289.5 814.893)"/></g></svg>