<svg width="1650" height="1650" xmlns="http://www.w3.org/2000/svg" xmlns:xlink="http://www.w3.org/1999/xlink" xml:space="preserve" overflow="hidden"><defs><filter id="fx0" x="-10%" y="-10%" width="120%" height="120%" filterUnits="userSpaceOnUse" primitiveUnits="userSpaceOnUse"><feComponentTransfer color-interpolation-filters="sRGB"><feFuncR type="discrete" tableValues="0 0"/><feFuncG type="discrete" tableValues="0 0"/><feFuncB type="discrete" tableValues="0 0"/><feFuncA type="linear" slope="0.4" intercept="0"/></feComponentTransfer><feGaussianBlur stdDeviation="6.11111 6.11111"/></filter><clipPath id="clip1"><rect x="183" y="226" width="1650" height="1650"/></clipPath><clipPath id="clip2"><rect x="-3" y="1" width="1401" height="1132"/></clipPath></defs><g clip-path="url(#clip1)" transform="translate(-183 -226)"><path d="M328.588 226 183 226 183 1876 1833 1876 1833 1730.41 328.588 1730.41 328.588 226Z" fill="#E74C3C" fill-rule="evenodd"/><path d="M668 1512C668 1565.57 624.571 1609 571 1609 517.429 1609 474 1565.57 474 1512 474 1458.43 517.429 1415 571 1415 624.571 1415 668 1458.43 668 1512Z" fill="#E74C3C" fill-rule="evenodd"/><path d="M765 1197C765 1250.57 721.571 1294 668 1294 614.428 1294 571 1250.57 571 1197 571 1143.43 614.428 1100 668 1100 721.571 1100 765 1143.43 765 1197Z" fill="#E74C3C" fill-rule="evenodd"/><path d="M1105 1245C1105 1298.57 1061.57 1342 1008 1342 954.428 1342 911 1298.57 911 1245 911 1191.43 954.428 1148 1008 1148 1061.57 1148 1105 1191.43 1105 1245Z" fill="#E74C3C" fill-rule="evenodd"/><path d="M1105 906C1105 959.571 1061.57 1003 1008 1003 954.428 1003 911 959.571 911 906 911 852.428 954.428 809 1008 809 1061.57 809 1105 852.428 1105 906Z" fill="#E74C3C" fill-rule="evenodd"/><path d="M1421 808.5C1421 862.348 1377.35 906 1323.5 906 1269.65 906 1226 862.348 1226 808.5 1226 754.652 1269.65 711 1323.5 711 1377.35 711 1421 754.652 1421 808.5Z" fill="#E74C3C" fill-rule="evenodd"/><path d="M1760 808.5C1760 862.348 1716.57 906 1663 906 1609.43 906 1566 862.348 1566 808.5 1566 754.652 1609.43 711 1663 711 1716.57 711 1760 754.652 1760 808.5Z" fill="#E74C3C" fill-rule="evenodd"/><path d="M1760 445C1760 498.572 1716.57 542 1663 542 1609.43 542 1566 498.572 1566 445 1566 391.428 1609.43 348 1663 348 1716.57 348 1760 391.428 1760 445Z" fill="#E74C3C" fill-rule="evenodd"/><g clip-path="url(#clip2)" filter="url(#fx0)" transform="translate(359 487)"><g><path d="M0 0 1327.77 1049.38" stroke="#E74C3C" stroke-width="46" stroke-linejoin="round" stroke-miterlimit="10" stroke-dasharray="183.333 137.5" fill="none" fill-rule="evenodd" transform="matrix(1 0 0 -1 33.7227 1092.1)"/></g></g><path d="M0 0 1327.77 1049.38" stroke="#E74C3C" stroke-width="45.8333" stroke-linejoin="round" stroke-miterlimit="10" stroke-dasharray="183.333 137.5" fill="none" fill-rule="evenodd" transform="matrix(1 0 0 -1 383 1569.38)"/></g></svg>