<svg width="749" height="742" xmlns="http://www.w3.org/2000/svg" xmlns:xlink="http://www.w3.org/1999/xlink" xml:space="preserve" overflow="hidden"><defs><clipPath id="clip0"><rect x="2105" y="270" width="749" height="742"/></clipPath></defs><g clip-path="url(#clip0)" transform="translate(-2105 -270)"><path d="M2854 348C2854 391.078 2743.86 426 2608 426 2472.14 426 2362 391.078 2362 348 2362 304.922 2472.14 270 2608 270 2743.86 270 2854 304.922 2854 348Z" fill="#E74C3C" fill-rule="evenodd"/><path d="M2783.71 543.667C2773.17 543.667 2766.14 535.833 2766.14 524.083 2766.14 512.333 2773.17 504.5 2783.71 504.5 2794.26 504.5 2801.29 512.333 2801.29 524.083 2801.29 535.833 2794.26 543.667 2783.71 543.667ZM2608 465.333C2472.7 465.333 2362 430.083 2362 387L2362 543.667C2362 586.75 2472.7 622 2608 622 2743.3 622 2854 586.75 2854 543.667L2854 387C2854 430.083 2743.3 465.333 2608 465.333Z" fill="#E74C3C" fill-rule="evenodd"/><path d="M2783.71 738.667C2773.17 738.667 2766.14 730.833 2766.14 719.083 2766.14 707.333 2773.17 699.5 2783.71 699.5 2794.26 699.5 2801.29 707.333 2801.29 719.083 2801.29 730.833 2794.26 738.667 2783.71 738.667ZM2608 660.333C2472.7 660.333 2362 625.083 2362 582L2362 738.667C2362 781.75 2472.7 817 2608 817 2743.3 817 2854 781.75 2854 738.667L2854 582C2854 625.083 2743.3 660.333 2608 660.333Z" fill="#E74C3C" fill-rule="evenodd"/><path d="M2783.71 934C2773.17 934 2766.14 926.2 2766.14 914.5 2766.14 902.8 2773.17 895 2783.71 895 2794.26 895 2801.29 902.8 2801.29 914.5 2801.29 926.2 2794.26 934 2783.71 934ZM2608 856C2472.7 856 2362 820.9 2362 778L2362 934C2362 976.9 2472.7 1012 2608 1012 2743.3 1012 2854 976.9 2854 934L2854 778C2854 820.9 2743.3 856 2608 856Z" fill="#E74C3C" fill-rule="evenodd"/><path d="M2282.25 558.382C2249.2 558.382 2222.16 528.285 2222.16 491.5 2222.16 454.715 2249.2 424.618 2282.25 424.618 2315.3 424.618 2342.34 454.715 2342.34 491.5 2342.34 528.285 2315.3 558.382 2282.25 558.382ZM2417.45 449.699C2414.44 437.437 2409.94 425.732 2404.43 415.143L2416.95 373.341 2388.41 341.572 2350.85 355.506C2340.84 349.375 2330.32 344.359 2319.3 341.015L2302.28 302 2262.22 302 2244.69 341.015C2233.68 344.359 2223.16 349.375 2213.65 355.506L2176.09 341.572 2147.55 373.341 2160.07 415.143C2154.56 426.29 2150.06 437.994 2147.05 450.256L2112 469.206 2112 513.794 2147.05 533.302C2150.06 545.564 2154.56 557.268 2160.07 567.858L2147.55 609.659 2176.09 641.428 2213.65 627.494C2223.66 633.625 2234.18 638.641 2245.2 641.985L2262.72 681 2302.78 681 2320.31 641.985C2331.32 638.641 2341.84 633.625 2351.35 627.494L2388.91 641.428 2417.45 609.659 2404.93 567.858C2410.44 556.711 2414.94 545.006 2417.95 532.744L2453 513.237 2453 468.649 2417.45 449.699Z" stroke="#FFFFFF" stroke-width="13.75" stroke-miterlimit="8" fill="#E74C3C" fill-rule="evenodd"/><path d="M2522.87 666.265C2505.62 666.265 2491.5 650.621 2491.5 631.5 2491.5 612.38 2505.62 596.736 2522.87 596.736 2540.12 596.736 2554.24 612.38 2554.24 631.5 2554.24 650.621 2540.12 666.265 2522.87 666.265ZM2593.44 609.772C2591.87 603.399 2589.52 597.315 2586.65 591.811L2593.18 570.083 2578.28 553.57 2558.68 560.812C2553.45 557.625 2547.96 555.018 2542.21 553.28L2533.32 533 2512.41 533 2503.27 553.28C2497.52 555.018 2492.03 557.625 2487.06 560.812L2467.46 553.57 2452.56 570.083 2459.09 591.811C2456.22 597.605 2453.86 603.689 2452.3 610.062L2434 619.912 2434 643.089 2452.3 653.228C2453.86 659.602 2456.22 665.686 2459.09 671.19L2452.56 692.918 2467.46 709.431 2487.06 702.189C2492.29 705.376 2497.78 707.983 2503.53 709.721L2512.68 730.001 2533.59 730.001 2542.73 709.721C2548.48 707.983 2553.97 705.376 2558.94 702.189L2578.54 709.431 2593.44 692.918 2586.91 671.19C2589.78 665.396 2592.14 659.312 2593.7 652.939L2612 642.799 2612 619.622 2593.44 609.772Z" stroke="#FFFFFF" stroke-width="13.75" stroke-miterlimit="8" fill="#E74C3C" fill-rule="evenodd"/><path d="M2352.31 878.412C2327.79 878.412 2307.73 856.177 2307.73 829 2307.73 801.823 2327.79 779.588 2352.31 779.588 2376.83 779.588 2396.9 801.823 2396.9 829 2396.9 856.177 2376.83 878.412 2352.31 878.412ZM2452.62 798.118C2450.39 789.059 2447.05 780.412 2442.96 772.588L2452.25 741.706 2431.08 718.235 2403.21 728.53C2395.78 724 2387.98 720.294 2379.81 717.824L2367.18 689 2337.45 689 2324.45 717.824C2316.28 720.294 2308.48 724 2301.42 728.53L2273.55 718.235 2252.38 741.706 2261.67 772.588C2257.58 780.823 2254.24 789.471 2252.01 798.53L2226 812.529 2226 845.47 2252.01 859.882C2254.24 868.941 2257.58 877.589 2261.67 885.412L2252.38 916.294 2273.55 939.765 2301.42 929.471C2308.85 934 2316.65 937.706 2324.82 940.176L2337.83 969 2367.55 969 2380.55 940.176C2388.72 937.706 2396.52 934 2403.58 929.471L2431.45 939.765 2452.62 916.294 2443.34 885.412C2447.42 877.176 2450.77 868.53 2452.99 859.471L2479 845.059 2479 812.118 2452.62 798.118Z" stroke="#FFFFFF" stroke-width="13.75" stroke-miterlimit="8" fill="#E74C3C" fill-rule="evenodd"/></g></svg>