<svg width="1657" height="1650" xmlns="http://www.w3.org/2000/svg" xmlns:xlink="http://www.w3.org/1999/xlink" xml:space="preserve" overflow="hidden"><g transform="translate(-1257 -231)"><path d="M2914 404.5C2914 500.321 2669.1 578.001 2367 578.001 2064.9 578.001 1820 500.321 1820 404.5 1820 308.678 2064.9 231 2367 231 2669.1 231 2914 308.678 2914 404.5Z" fill="#E74C3C" fill-rule="evenodd"/><path d="M2757.71 838.334C2734.27 838.334 2718.64 820.966 2718.64 794.917 2718.64 768.866 2734.27 751.5 2757.71 751.5 2781.16 751.5 2796.79 768.866 2796.79 794.917 2796.79 820.966 2781.16 838.334 2757.71 838.334ZM2367 664.666C2066.15 664.666 1820 586.517 1820 491L1820 838.334C1820 933.851 2066.15 1012 2367 1012 2667.85 1012 2914 933.851 2914 838.334L2914 491C2914 586.517 2667.85 664.666 2367 664.666Z" fill="#E74C3C" fill-rule="evenodd"/><path d="M2757.71 1272.33C2734.27 1272.33 2718.64 1254.97 2718.64 1228.92 2718.64 1202.87 2734.27 1185.5 2757.71 1185.5 2781.16 1185.5 2796.79 1202.87 2796.79 1228.92 2796.79 1254.97 2781.16 1272.33 2757.71 1272.33ZM2367 1098.67C2066.15 1098.67 1820 1020.52 1820 925L1820 1272.33C1820 1367.85 2066.15 1446 2367 1446 2667.85 1446 2914 1367.85 2914 1272.33L2914 925C2914 1020.52 2667.85 1098.67 2367 1098.67Z" fill="#E74C3C" fill-rule="evenodd"/><path d="M2757.71 1707.33C2734.27 1707.33 2718.64 1689.97 2718.64 1663.92 2718.64 1637.87 2734.27 1620.5 2757.71 1620.5 2781.16 1620.5 2796.79 1637.87 2796.79 1663.92 2796.79 1689.97 2781.16 1707.33 2757.71 1707.33ZM2367 1533.67C2066.15 1533.67 1820 1455.52 1820 1360L1820 1707.33C1820 1802.85 2066.15 1881 2367 1881 2667.85 1881 2914 1802.85 2914 1707.33L2914 1360C2914 1455.52 2667.85 1533.67 2367 1533.67Z" fill="#E74C3C" fill-rule="evenodd"/><path d="M1642.94 872.588C1569.38 872.588 1509.2 805.724 1509.2 724 1509.2 642.276 1569.38 575.412 1642.94 575.412 1716.5 575.412 1776.69 642.276 1776.69 724 1776.69 805.724 1716.5 872.588 1642.94 872.588ZM1943.87 631.133C1937.18 603.892 1927.15 577.888 1914.89 554.362L1942.75 461.494 1879.23 390.915 1795.64 421.87C1773.34 408.251 1749.94 397.106 1725.42 389.676L1687.52 303 1598.36 303 1559.35 389.676C1534.83 397.106 1511.43 408.251 1490.25 421.87L1406.66 390.915 1343.13 461.494 1371 554.362C1358.74 579.127 1348.7 605.129 1342.02 632.37L1264 674.471 1264 773.529 1342.02 816.868C1348.7 844.109 1358.74 870.112 1371 893.639L1343.13 986.506 1406.66 1057.09 1490.25 1026.13C1512.54 1039.75 1535.95 1050.89 1560.47 1058.32L1599.48 1145 1688.64 1145 1727.65 1058.32C1752.17 1050.89 1775.57 1039.75 1796.75 1026.13L1880.34 1057.09 1943.87 986.506 1916.01 893.639C1928.26 868.874 1938.3 842.87 1944.98 815.629L2023 772.292 2023 673.233 1943.87 631.133Z" stroke="#FFFFFF" stroke-width="13.75" stroke-miterlimit="8" fill="#E74C3C" fill-rule="evenodd"/><path d="M2178.21 1110.97C2139.93 1110.97 2108.61 1076.11 2108.61 1033.5 2108.61 990.892 2139.93 956.03 2178.21 956.03 2216.49 956.03 2247.81 990.892 2247.81 1033.5 2247.81 1076.11 2216.49 1110.97 2178.21 1110.97ZM2334.82 985.081C2331.34 970.879 2326.12 957.321 2319.74 945.055L2334.24 896.635 2301.18 859.837 2257.68 875.977C2246.07 868.875 2233.89 863.065 2221.13 859.192L2201.41 814 2155.01 814 2134.71 859.192C2121.95 863.065 2109.77 868.875 2098.75 875.977L2055.24 859.837 2022.18 896.635 2036.68 945.055C2030.3 957.967 2025.08 971.524 2021.6 985.727L1981 1007.68 1981 1059.32 2021.6 1081.92C2025.08 1096.12 2030.3 1109.68 2036.68 1121.95L2022.18 1170.37 2055.24 1207.16 2098.75 1191.02C2110.35 1198.13 2122.53 1203.94 2135.29 1207.81L2155.59 1253 2201.99 1253 2222.29 1207.81C2235.05 1203.94 2247.23 1198.13 2258.25 1191.02L2301.76 1207.16 2334.82 1170.37 2320.32 1121.95C2326.7 1109.03 2331.92 1095.48 2335.4 1081.27L2376 1058.68 2376 1007.03 2334.82 985.081Z" stroke="#FFFFFF" stroke-width="13.75" stroke-miterlimit="8" fill="#E74C3C" fill-rule="evenodd"/><path d="M1799.09 1583.44C1744.72 1583.44 1700.23 1533.97 1700.23 1473.5 1700.23 1413.03 1744.72 1363.56 1799.09 1363.56 1853.46 1363.56 1897.94 1413.03 1897.94 1473.5 1897.94 1533.97 1853.46 1583.44 1799.09 1583.44ZM2021.51 1404.79C2016.57 1384.63 2009.16 1365.39 2000.09 1347.98L2020.69 1279.27 1973.73 1227.05 1911.95 1249.95C1895.47 1239.88 1878.17 1231.63 1860.05 1226.13L1832.04 1162 1766.14 1162 1737.3 1226.13C1719.18 1231.63 1701.88 1239.88 1686.23 1249.95L1624.45 1227.05 1577.49 1279.27 1598.08 1347.98C1589.02 1366.31 1581.61 1385.55 1576.67 1405.7L1519 1436.85 1519 1510.15 1576.67 1542.21C1581.61 1562.37 1589.02 1581.61 1598.08 1599.02L1577.49 1667.73 1624.45 1719.95 1686.23 1697.05C1702.7 1707.13 1720.01 1715.37 1738.13 1720.87L1766.96 1785 1832.86 1785 1861.7 1720.87C1879.82 1715.37 1897.12 1707.13 1912.77 1697.05L1974.56 1719.95 2021.51 1667.73 2000.92 1599.02C2009.98 1580.69 2017.39 1561.45 2022.34 1541.3L2080 1509.23 2080 1435.94 2021.51 1404.79Z" stroke="#FFFFFF" stroke-width="13.75" stroke-miterlimit="8" fill="#E74C3C" fill-rule="evenodd"/></g></svg>