<svg width="1650" height="1650" xmlns="http://www.w3.org/2000/svg" xmlns:xlink="http://www.w3.org/1999/xlink" xml:space="preserve" overflow="hidden"><defs><clipPath id="clip0"><rect x="2107" y="300" width="1650" height="1650"/></clipPath></defs><g clip-path="url(#clip0)" transform="translate(-2107 -300)"><path d="M2654.98 1562 2420 1258 2654.98 954 2713 1029.13 2536.46 1258 2713 1486.87 2654.98 1562Z" fill="#E74C3C" fill-rule="evenodd"/><path d="M3208.22 1562 3150 1486.87 3327.14 1258 3150 1029.13 3208.22 954 3444 1258 3208.22 1562Z" fill="#E74C3C" fill-rule="evenodd"/><path d="M2764.89 1564.01 3019.5 949.623 3095.72 981.207 2841.1 1595.6Z" fill="#E74C3C" fill-rule="evenodd"/><path d="M2107 300 2107 1950 3757 1950 3757 300ZM3530.12 459.678C3552.91 459.678 3571.37 483.508 3571.37 512.903 3571.37 542.299 3552.91 566.129 3530.12 566.129 3507.34 566.129 3488.87 542.299 3488.87 512.903 3488.87 483.508 3507.34 459.678 3530.12 459.678ZM3385.75 459.678C3408.53 459.678 3427 483.508 3427 512.903 3427 542.299 3408.53 566.129 3385.75 566.129 3362.97 566.129 3344.5 542.299 3344.5 512.903 3344.5 483.508 3362.97 459.678 3385.75 459.678ZM3241.37 459.678C3264.16 459.678 3282.62 483.508 3282.62 512.903 3282.62 542.299 3264.16 566.129 3241.37 566.129 3218.59 566.129 3200.12 542.299 3200.12 512.903 3200.12 483.508 3218.59 459.678 3241.37 459.678ZM3633.25 1790.32 2230.75 1790.32 2230.75 725.807 3633.25 725.807Z" fill="#E74C3C" fill-rule="evenodd"/></g></svg>