<svg width="1650" height="1650" xmlns="http://www.w3.org/2000/svg" xmlns:xlink="http://www.w3.org/1999/xlink" xml:space="preserve" overflow="hidden"><g transform="translate(-1917 -906)"><path d="M2062.59 906 1917 906 1917 2556 3567 2556 3567 2410.41 2062.59 2410.41Z" fill="#E74C3C" fill-rule="evenodd"/><path d="M2208 1415 2475 1415 2475 2264 2208 2264Z" fill="#E74C3C" fill-rule="evenodd"/><path d="M2572 906 2839 906 2839 2264 2572 2264Z" fill="#E74C3C" fill-rule="evenodd"/><path d="M2936 1415 3203 1415 3203 2264 2936 2264Z" fill="#E74C3C" fill-rule="evenodd"/><path d="M3300 1828 3567 1828 3567 2264 3300 2264Z" fill="#E74C3C" fill-rule="evenodd"/><path d="M3448.97 2142.72 3234.09 1927.85C3204.86 1898.63 3165.32 1888.31 3127.5 1895.19L3051.86 1819.55C3118.91 1733.6 3158.45 1623.59 3158.45 1506.7 3158.45 1223.06 2926.37 991 2642.72 991 2359.08 991 2127 1223.06 2127 1506.7 2127 1790.33 2359.08 2022.39 2642.72 2022.39 2759.62 2022.39 2867.92 1982.86 2955.6 1915.82L3031.24 1991.45C3024.36 2029.27 3034.67 2068.81 3063.9 2098.03L3278.78 2312.9C3302.85 2336.97 3333.79 2349 3364.74 2349 3395.68 2349 3426.62 2336.97 3450.69 2312.9 3495.39 2264.77 3495.39 2189.13 3448.97 2142.72ZM2641 1917.53C2414.09 1917.53 2228.43 1731.88 2228.43 1504.98 2228.43 1278.07 2414.09 1092.42 2641 1092.42 2867.92 1092.42 3053.58 1278.07 3053.58 1504.98 3053.58 1731.88 2867.92 1917.53 2641 1917.53Z" stroke="#FFFFFF" stroke-width="13.75" stroke-miterlimit="8" fill="#E74C3C" fill-rule="evenodd"/></g></svg>