<svg width="742" height="742" xmlns="http://www.w3.org/2000/svg" xmlns:xlink="http://www.w3.org/1999/xlink" xml:space="preserve" overflow="hidden"><defs><clipPath id="clip0"><rect x="3191" y="260" width="742" height="742"/></clipPath></defs><g clip-path="url(#clip0)" transform="translate(-3191 -260)"><path d="M3256.47 260 3191 260 3191 1002 3933 1002 3933 936.529 3256.47 936.529Z" fill="#E74C3C" fill-rule="evenodd"/><path d="M3322 489 3442 489 3442 871 3322 871Z" fill="#E74C3C" fill-rule="evenodd"/><path d="M3486 260 3606 260 3606 871 3486 871Z" fill="#E74C3C" fill-rule="evenodd"/><path d="M3649 489 3769 489 3769 871 3649 871Z" fill="#E74C3C" fill-rule="evenodd"/><path d="M3813 675 3933 675 3933 871 3813 871Z" fill="#E74C3C" fill-rule="evenodd"/><path d="M3880.23 817.19 3783.47 720.513C3770.32 707.365 3752.51 702.724 3735.48 705.818L3701.43 671.787C3731.61 633.117 3749.42 583.618 3749.42 531.025 3749.42 403.411 3644.92 299 3517.21 299 3389.49 299 3285 403.411 3285 531.025 3285 658.639 3389.49 763.051 3517.21 763.051 3569.84 763.051 3618.61 745.262 3658.08 715.099L3692.14 749.129C3689.04 766.145 3693.69 783.933 3706.85 797.081L3803.6 893.758C3814.44 904.586 3828.37 910 3842.3 910 3856.23 910 3870.17 904.586 3881 893.758 3901.13 872.103 3901.13 838.072 3880.23 817.19ZM3516.43 715.872C3414.26 715.872 3330.67 632.343 3330.67 530.252 3330.67 428.161 3414.26 344.632 3516.43 344.632 3618.61 344.632 3702.2 428.161 3702.2 530.252 3702.2 632.343 3618.61 715.872 3516.43 715.872Z" stroke="#FFFFFF" stroke-width="13.75" stroke-miterlimit="8" fill="#E74C3C" fill-rule="evenodd"/></g></svg>