<svg width="771" height="771" xmlns="http://www.w3.org/2000/svg" xmlns:xlink="http://www.w3.org/1999/xlink" xml:space="preserve" overflow="hidden"><g transform="translate(-1133 -212)"><path d="M1147 349.836C1147 281.443 1202.44 226 1270.84 226L1766.16 226C1834.56 226 1890 281.443 1890 349.836L1890 845.164C1890 913.557 1834.56 969 1766.16 969L1270.84 969C1202.44 969 1147 913.557 1147 845.164Z" stroke="#E74C3C" stroke-width="27.5" stroke-miterlimit="8" fill="none" fill-rule="evenodd"/><g><g><g><path d="M77.2916 54.1042 54.1042 54.1042 54.1042 316.896 316.896 316.896 316.896 293.708 77.2916 293.708 77.2916 54.1042Z" fill="#E74C3C" transform="matrix(1 0 0 1 1519 226)"/><path d="M131.396 258.927C131.396 267.464 124.475 274.385 115.937 274.385 107.4 274.385 100.479 267.464 100.479 258.927 100.479 250.39 107.4 243.469 115.937 243.469 124.475 243.469 131.396 250.39 131.396 258.927Z" fill="#E74C3C" transform="matrix(1 0 0 1 1519 226)"/><path d="M146.854 208.687C146.854 217.225 139.933 224.146 131.396 224.146 122.858 224.146 115.937 217.225 115.937 208.687 115.937 200.15 122.858 193.229 131.396 193.229 139.933 193.229 146.854 200.15 146.854 208.687Z" fill="#E74C3C" transform="matrix(1 0 0 1 1519 226)"/><path d="M200.958 216.417C200.958 224.954 194.037 231.875 185.5 231.875 176.963 231.875 170.042 224.954 170.042 216.417 170.042 207.879 176.963 200.958 185.5 200.958 194.037 200.958 200.958 207.879 200.958 216.417Z" fill="#E74C3C" transform="matrix(1 0 0 1 1519 226)"/><path d="M200.958 162.312C200.958 170.85 194.037 177.771 185.5 177.771 176.963 177.771 170.042 170.85 170.042 162.312 170.042 153.775 176.963 146.854 185.5 146.854 194.037 146.854 200.958 153.775 200.958 162.312Z" fill="#E74C3C" transform="matrix(1 0 0 1 1519 226)"/><path d="M251.198 146.854C251.198 155.392 244.277 162.312 235.74 162.312 227.202 162.312 220.281 155.392 220.281 146.854 220.281 138.317 227.202 131.396 235.74 131.396 244.277 131.396 251.198 138.317 251.198 146.854Z" fill="#E74C3C" transform="matrix(1 0 0 1 1519 226)"/><path d="M305.302 146.854C305.302 155.392 298.381 162.312 289.844 162.312 281.306 162.312 274.385 155.392 274.385 146.854 274.385 138.317 281.306 131.396 289.844 131.396 298.381 131.396 305.302 138.317 305.302 146.854Z" fill="#E74C3C" transform="matrix(1 0 0 1 1519 226)"/><path d="M305.302 88.8854C305.302 97.4228 298.381 104.344 289.844 104.344 281.306 104.344 274.385 97.4228 274.385 88.8854 274.385 80.348 281.306 73.4271 289.844 73.4271 298.381 73.4271 305.302 80.348 305.302 88.8854Z" fill="#E74C3C" transform="matrix(1 0 0 1 1519 226)"/></g></g></g><g><g><g><path d="M1224.5 651.25 1201.25 651.25 1201.25 914.75 1464.75 914.75 1464.75 891.5 1224.5 891.5Z" fill="#E74C3C"/><path d="M1247.75 732.625 1290.38 732.625 1290.38 868.25 1247.75 868.25Z" fill="#E74C3C"/><path d="M1305.88 651.25 1348.5 651.25 1348.5 868.25 1305.88 868.25Z" fill="#E74C3C"/><path d="M1364 732.625 1406.62 732.625 1406.62 868.25 1364 868.25Z" fill="#E74C3C"/><path d="M1422.12 798.5 1464.75 798.5 1464.75 868.25 1422.12 868.25Z" fill="#E74C3C"/></g></g></g><g><g><g><path d="M177.771 38.6459C100.479 42.5104 38.6459 107.435 38.6459 185.5 38.6459 266.656 104.344 332.354 185.5 332.354 222.214 332.354 256.609 319.215 283.661 294.481L177.771 188.592 177.771 38.6459Z" fill="#E74C3C" transform="matrix(1.00269 0 0 1 1147 226)"/><path d="M193.229 38.6459 193.229 177.771 331.968 177.771C328.103 102.412 268.202 42.5104 193.229 38.6459Z" fill="#E74C3C" transform="matrix(1.00269 0 0 1 1147 226)"/><path d="M204.05 193.229 294.481 283.661C317.283 258.541 330.422 226.851 331.968 193.229L204.05 193.229Z" fill="#E74C3C" transform="matrix(1.00269 0 0 1 1147 226)"/></g></g></g><g><g><g><path d="M316.896 146.854 239.604 146.854 239.604 100.479 316.896 100.479 316.896 146.854ZM316.896 208.687 239.604 208.687 239.604 162.312 316.896 162.312 316.896 208.687ZM316.896 270.521 239.604 270.521 239.604 224.146 316.896 224.146 316.896 270.521ZM146.854 270.521 146.854 224.146 224.146 224.146 224.146 270.521 146.854 270.521ZM54.1042 270.521 54.1042 224.146 131.396 224.146 131.396 270.521 54.1042 270.521ZM54.1042 162.312 131.396 162.312 131.396 208.687 54.1042 208.687 54.1042 162.312ZM54.1042 100.479 131.396 100.479 131.396 146.854 54.1042 146.854 54.1042 100.479ZM224.146 162.312 224.146 208.687 146.854 208.687 146.854 162.312 224.146 162.312ZM224.146 100.479 224.146 146.854 146.854 146.854 146.854 100.479 224.146 100.479ZM30.9167 77.2916 30.9167 293.708 340.083 293.708 340.083 77.2916 30.9167 77.2916Z" fill="#E74C3C" transform="matrix(1 0 0 1.0027 1519 597)"/></g></g></g></g></svg>