<svg width="1678" height="1678" xmlns="http://www.w3.org/2000/svg" xmlns:xlink="http://www.w3.org/1999/xlink" xml:space="preserve" overflow="hidden"><g transform="translate(-2722 -152)"><path d="M2736 441.005C2736 289.124 2859.12 166 3011.01 166L4110.99 166C4262.88 166 4386 289.124 4386 441.005L4386 1540.99C4386 1692.88 4262.88 1816 4110.99 1816L3011.01 1816C2859.12 1816 2736 1692.88 2736 1540.99Z" stroke="#E74C3C" stroke-width="27.5" stroke-miterlimit="8" fill="none" fill-rule="evenodd"/><g><g><g><path d="M3732.88 286.313 3681.31 286.313 3681.31 870.688 4265.69 870.688 4265.69 819.125 3732.88 819.125 3732.88 286.313Z" fill="#E74C3C"/><path d="M3853.19 741.781C3853.19 760.766 3837.8 776.156 3818.81 776.156 3799.83 776.156 3784.44 760.766 3784.44 741.781 3784.44 722.797 3799.83 707.406 3818.81 707.406 3837.8 707.406 3853.19 722.797 3853.19 741.781Z" fill="#E74C3C"/><path d="M3887.56 630.062C3887.56 649.047 3872.17 664.438 3853.19 664.438 3834.2 664.438 3818.81 649.047 3818.81 630.062 3818.81 611.078 3834.2 595.688 3853.19 595.688 3872.17 595.688 3887.56 611.078 3887.56 630.062Z" fill="#E74C3C"/><path d="M4007.88 647.25C4007.88 666.235 3992.48 681.625 3973.5 681.625 3954.52 681.625 3939.12 666.235 3939.12 647.25 3939.12 628.265 3954.52 612.875 3973.5 612.875 3992.48 612.875 4007.88 628.265 4007.88 647.25Z" fill="#E74C3C"/><path d="M4007.88 526.938C4007.88 545.922 3992.48 561.312 3973.5 561.312 3954.52 561.312 3939.12 545.922 3939.12 526.938 3939.12 507.953 3954.52 492.563 3973.5 492.563 3992.48 492.563 4007.88 507.953 4007.88 526.938Z" fill="#E74C3C"/><path d="M4119.59 492.563C4119.59 511.547 4104.2 526.938 4085.22 526.938 4066.23 526.938 4050.84 511.547 4050.84 492.563 4050.84 473.578 4066.23 458.188 4085.22 458.188 4104.2 458.188 4119.59 473.578 4119.59 492.563Z" fill="#E74C3C"/><path d="M4239.91 492.563C4239.91 511.547 4224.52 526.938 4205.53 526.938 4186.55 526.938 4171.16 511.547 4171.16 492.563 4171.16 473.578 4186.55 458.188 4205.53 458.188 4224.52 458.188 4239.91 473.578 4239.91 492.563Z" fill="#E74C3C"/><path d="M4239.91 363.656C4239.91 382.641 4224.52 398.031 4205.53 398.031 4186.55 398.031 4171.16 382.641 4171.16 363.656 4171.16 344.672 4186.55 329.281 4205.53 329.281 4224.52 329.281 4239.91 344.672 4239.91 363.656Z" fill="#E74C3C"/></g></g></g><g><g><g><path d="M2907.88 1111.31 2856.31 1111.31 2856.31 1695.69 3440.69 1695.69 3440.69 1644.12 2907.88 1644.12Z" fill="#E74C3C"/><path d="M2959.44 1291.78 3053.97 1291.78 3053.97 1592.56 2959.44 1592.56Z" fill="#E74C3C"/><path d="M3088.34 1111.31 3182.88 1111.31 3182.88 1592.56 3088.34 1592.56Z" fill="#E74C3C"/><path d="M3217.25 1291.78 3311.78 1291.78 3311.78 1592.56 3217.25 1592.56Z" fill="#E74C3C"/><path d="M3346.16 1437.88 3440.69 1437.88 3440.69 1592.56 3346.16 1592.56Z" fill="#E74C3C"/></g></g></g><g><g><g><path d="M3131.31 251.938C2959.44 260.531 2821.94 404.906 2821.94 578.5 2821.94 758.969 2968.03 905.062 3148.5 905.062 3230.14 905.062 3306.62 875.844 3366.78 820.844L3131.31 585.375 3131.31 251.938Z" fill="#E74C3C"/><path d="M3165.69 251.938 3165.69 561.312 3474.2 561.312C3465.61 393.734 3332.41 260.531 3165.69 251.938Z" fill="#E74C3C"/><path d="M3189.75 595.688 3390.84 796.781C3441.55 740.922 3470.77 670.453 3474.2 595.688L3189.75 595.688Z" fill="#E74C3C"/></g></g></g><g><g><g><path d="M4265.69 1317.56 4093.81 1317.56 4093.81 1214.44 4265.69 1214.44 4265.69 1317.56ZM4265.69 1455.06 4093.81 1455.06 4093.81 1351.94 4265.69 1351.94 4265.69 1455.06ZM4265.69 1592.56 4093.81 1592.56 4093.81 1489.44 4265.69 1489.44 4265.69 1592.56ZM3887.56 1592.56 3887.56 1489.44 4059.44 1489.44 4059.44 1592.56 3887.56 1592.56ZM3681.31 1592.56 3681.31 1489.44 3853.19 1489.44 3853.19 1592.56 3681.31 1592.56ZM3681.31 1351.94 3853.19 1351.94 3853.19 1455.06 3681.31 1455.06 3681.31 1351.94ZM3681.31 1214.44 3853.19 1214.44 3853.19 1317.56 3681.31 1317.56 3681.31 1214.44ZM4059.44 1351.94 4059.44 1455.06 3887.56 1455.06 3887.56 1351.94 4059.44 1351.94ZM4059.44 1214.44 4059.44 1317.56 3887.56 1317.56 3887.56 1214.44 4059.44 1214.44ZM3629.75 1162.88 3629.75 1644.12 4317.25 1644.12 4317.25 1162.88 3629.75 1162.88Z" fill="#E74C3C"/></g></g></g></g></svg>