<svg width="330" height="330" xmlns="http://www.w3.org/2000/svg" xmlns:xlink="http://www.w3.org/1999/xlink" xml:space="preserve" overflow="hidden"><defs><clipPath id="clip0"><rect x="1643" y="1073" width="330" height="330"/></clipPath></defs><g clip-path="url(#clip0)" transform="translate(-1643 -1073)"><path d="M1807.67 1203.18C1813.88 1203.18 1818.8 1204.63 1822.44 1207.54 1826.09 1210.44 1828.67 1214.18 1830.2 1218.76 1831.72 1223.34 1832.49 1228.19 1832.49 1233.31 1832.49 1239.02 1831.72 1244.37 1830.2 1249.34 1828.67 1254.31 1826.06 1258.3 1822.37 1261.3 1818.68 1264.31 1813.58 1265.81 1807.08 1265.81 1800.88 1265.81 1795.98 1264.26 1792.39 1261.15 1788.79 1258.05 1786.26 1254.02 1784.78 1249.04 1783.3 1244.07 1782.56 1238.83 1782.56 1233.31 1782.56 1228.19 1783.3 1223.34 1784.78 1218.76 1786.26 1214.18 1788.84 1210.44 1792.53 1207.54 1796.23 1204.63 1801.27 1203.18 1807.67 1203.18ZM1808.85 1116.92C1790.93 1116.92 1774.51 1119.63 1759.6 1125.04 1744.68 1130.46 1731.75 1138.24 1720.82 1148.38 1709.89 1158.52 1701.45 1170.76 1695.49 1185.09 1689.53 1199.41 1686.56 1215.54 1686.56 1233.46 1686.56 1258.37 1691.8 1279.52 1702.29 1296.9 1712.77 1314.28 1727.32 1327.5 1745.93 1336.56 1764.54 1345.62 1786.11 1350.15 1810.63 1350.15 1820.77 1350.15 1830.64 1349.38 1840.24 1347.86 1849.84 1346.33 1858.53 1344.14 1866.31 1341.28L1866.31 1312.78C1858.63 1316.03 1849.82 1318.56 1839.87 1320.38 1829.93 1322.21 1819.69 1323.12 1809.15 1323.12 1790.54 1323.12 1774.17 1319.84 1760.04 1313.29 1745.91 1306.75 1734.88 1296.83 1726.95 1283.53 1719.03 1270.24 1715.06 1253.55 1715.06 1233.46 1715.06 1214.85 1718.93 1198.85 1726.66 1185.46 1734.39 1172.06 1745.29 1161.8 1759.37 1154.66 1773.45 1147.52 1789.95 1143.95 1808.85 1143.95 1828.35 1143.95 1844.94 1147.4 1858.63 1154.29 1872.32 1161.18 1882.78 1170.86 1890.02 1183.31 1897.26 1195.77 1900.88 1210.32 1900.88 1226.96 1900.88 1234.84 1900.16 1241.76 1898.73 1247.71 1897.31 1253.67 1895.11 1258.27 1892.16 1261.52 1889.21 1264.77 1885.42 1266.4 1880.79 1266.4 1876.45 1266.4 1873.16 1265.24 1870.89 1262.93 1868.63 1260.61 1867.49 1256.7 1867.49 1251.18L1867.49 1177.63 1833.82 1177.63 1832.49 1190.48C1829.43 1186.05 1824.93 1182.45 1818.97 1179.7 1813.02 1176.94 1806 1175.56 1797.92 1175.56 1787.68 1175.56 1778.65 1177.92 1770.82 1182.65 1762.99 1187.38 1756.86 1194.1 1752.43 1202.81 1748 1211.53 1745.78 1221.89 1745.78 1233.9 1745.78 1246.21 1747.95 1256.87 1752.28 1265.88 1756.62 1274.89 1762.65 1281.83 1770.38 1286.71 1778.11 1291.58 1787.09 1294.02 1797.33 1294.02 1807.57 1294.02 1815.97 1291.88 1822.52 1287.59 1829.07 1283.31 1833.72 1278.07 1836.48 1271.86 1839.43 1279.15 1844.43 1284.66 1851.47 1288.41 1858.51 1292.15 1866.9 1294.02 1876.65 1294.02 1886.79 1294.02 1895.85 1291.58 1903.83 1286.71 1911.81 1281.83 1918.08 1274.4 1922.66 1264.4 1927.24 1254.41 1929.53 1241.68 1929.53 1226.22 1929.53 1211.75 1927.02 1197.94 1922 1184.79 1916.97 1171.65 1909.42 1159.98 1899.32 1149.78 1889.23 1139.59 1876.65 1131.57 1861.59 1125.71 1846.52 1119.85 1828.94 1116.92 1808.85 1116.92ZM1698 1073 1918 1073C1948.38 1073 1973 1097.62 1973 1128L1973 1348C1973 1378.38 1948.38 1403 1918 1403L1698 1403C1667.62 1403 1643 1378.38 1643 1348L1643 1128C1643 1097.62 1667.62 1073 1698 1073Z" fill="#FFFFFF" fill-rule="evenodd"/></g></svg>