<svg width="248" height="243" xmlns="http://www.w3.org/2000/svg" xmlns:xlink="http://www.w3.org/1999/xlink" xml:space="preserve" overflow="hidden"><defs><clipPath id="clip0"><rect x="98" y="51" width="248" height="243"/></clipPath></defs><g clip-path="url(#clip0)" transform="translate(-98 -51)"><path d="M1331.1 885.978C1335.68 885.978 1339.3 887.046 1341.98 889.189 1344.67 891.324 1346.57 894.078 1347.69 897.451 1348.81 900.823 1349.38 904.394 1349.38 908.165 1349.38 912.369 1348.81 916.309 1347.69 919.969 1346.57 923.628 1344.64 926.566 1341.93 928.776 1339.21 930.992 1335.45 932.096 1330.67 932.096 1326.1 932.096 1322.49 930.955 1319.85 928.665 1317.2 926.382 1315.34 923.415 1314.25 919.748 1313.16 916.088 1312.61 912.229 1312.61 908.165 1312.61 904.394 1313.16 900.823 1314.25 897.451 1315.34 894.078 1317.24 891.324 1319.95 889.189 1322.68 887.046 1326.39 885.978 1331.1 885.978ZM1331.97 822.459C1318.78 822.459 1306.68 824.455 1295.71 828.439 1284.72 832.43 1275.2 838.159 1267.15 845.625 1259.1 853.092 1252.89 862.105 1248.5 872.657 1244.11 883.202 1241.92 895.08 1241.92 908.275 1241.92 926.618 1245.78 942.192 1253.5 954.99 1261.22 967.788 1271.94 977.523 1285.64 984.194 1299.34 990.866 1315.23 994.201 1333.28 994.201 1340.75 994.201 1348.02 993.634 1355.09 992.515 1362.15 991.388 1368.55 989.776 1374.28 987.67L1374.28 966.683C1368.63 969.077 1362.14 970.94 1354.81 972.28 1347.49 973.627 1339.95 974.297 1332.19 974.297 1318.49 974.297 1306.43 971.882 1296.03 967.059 1285.62 962.243 1277.5 954.938 1271.66 945.145 1265.83 935.359 1262.91 923.069 1262.91 908.275 1262.91 894.571 1265.76 882.79 1271.45 872.93 1277.14 863.062 1285.17 855.507 1295.54 850.25 1305.9 844.992 1318.05 842.363 1331.97 842.363 1346.33 842.363 1358.55 844.904 1368.63 849.977 1378.71 855.051 1386.41 862.179 1391.74 871.346 1397.07 880.522 1399.74 891.236 1399.74 903.489 1399.74 909.291 1399.21 914.387 1398.16 918.768 1397.11 923.157 1395.49 926.544 1393.32 928.938 1391.15 931.331 1388.35 932.531 1384.95 932.531 1381.75 932.531 1379.33 931.677 1377.66 929.976 1375.99 928.267 1375.15 925.388 1375.15 921.323L1375.15 867.164 1350.36 867.164 1349.38 876.626C1347.13 873.364 1343.81 870.713 1339.42 868.688 1335.04 866.656 1329.87 865.64 1323.92 865.64 1316.38 865.64 1309.73 867.378 1303.97 870.86 1298.2 874.343 1293.69 879.292 1290.43 885.706 1287.16 892.127 1285.53 899.755 1285.53 908.599 1285.53 917.664 1287.13 925.513 1290.32 932.148 1293.51 938.783 1297.95 943.893 1303.64 947.486 1309.34 951.073 1315.95 952.869 1323.49 952.869 1331.03 952.869 1337.21 951.293 1342.04 948.134 1346.86 944.983 1350.28 941.124 1352.32 936.551 1354.49 941.92 1358.17 945.977 1363.36 948.738 1368.54 951.492 1374.72 952.869 1381.9 952.869 1389.36 952.869 1396.04 951.073 1401.91 947.486 1407.79 943.893 1412.4 938.422 1415.78 931.058 1419.15 923.702 1420.84 914.328 1420.84 902.944 1420.84 892.289 1418.99 882.119 1415.29 872.436 1411.59 862.76 1406.03 854.167 1398.59 846.656 1391.16 839.153 1381.9 833.247 1370.81 828.932 1359.71 824.617 1346.76 822.459 1331.97 822.459ZM1250.35 790.118 1412.35 790.118C1434.72 790.118 1452.85 808.247 1452.85 830.618L1452.85 992.618C1452.85 1014.99 1434.72 1033.12 1412.35 1033.12L1250.35 1033.12C1227.97 1033.12 1209.85 1014.99 1209.85 992.618L1209.85 830.618C1209.85 808.247 1227.97 790.118 1250.35 790.118Z" fill="#FFFFFF" fill-rule="evenodd" transform="matrix(1.02058 0 0 1 -1136.74 -739.118)"/></g></svg>