<svg width="288" height="288" xmlns="http://www.w3.org/2000/svg" xmlns:xlink="http://www.w3.org/1999/xlink" xml:space="preserve" overflow="hidden"><g transform="translate(-404 -72)"><path d="M548 72C468.488 72 404 136.476 404 216 404 279.624 445.256 333.6 502.484 352.644 509.672 353.976 512 349.512 512 345.72L512 318.912C471.944 327.624 463.604 301.92 463.604 301.92 457.052 285.276 447.608 280.848 447.608 280.848 434.54 271.908 448.604 272.1 448.604 272.1 463.064 273.108 470.672 286.944 470.672 286.944 483.512 308.952 504.356 302.592 512.576 298.908 513.86 289.608 517.592 283.248 521.72 279.66 489.74 276 456.116 263.652 456.116 208.488 456.116 192.756 461.744 179.916 470.948 169.836 469.46 166.2 464.528 151.548 472.352 131.724 472.352 131.724 484.448 127.86 511.964 146.484 523.448 143.292 535.76 141.696 548 141.636 560.24 141.696 572.564 143.292 584.072 146.484 611.564 127.86 623.636 131.724 623.636 131.724 631.472 151.56 626.54 166.212 625.052 169.836 634.292 179.916 639.872 192.768 639.872 208.488 639.872 263.796 606.188 275.976 574.124 279.54 579.284 284.004 584 292.764 584 306.204L584 345.72C584 349.548 586.304 354.048 593.612 352.632 650.792 333.564 692 279.6 692 216 692 136.476 627.524 72 548 72Z" fill="#2C3E50"/></g></svg>