<svg width="288" height="288" xmlns="http://www.w3.org/2000/svg" xmlns:xlink="http://www.w3.org/1999/xlink" xml:space="preserve" overflow="hidden"><g transform="translate(-86 -72)"><path d="M314 72 146 72C112.868 72 86 98.868 86 132L86 300C86 333.132 112.868 360 146 360L314 360C347.144 360 374 333.132 374 300L374 132C374 98.868 347.144 72 314 72ZM182 300 146 300 146 168 182 168 182 300ZM164 152.784C152.408 152.784 143 143.304 143 131.616 143 119.928 152.408 110.448 164 110.448 175.592 110.448 185 119.928 185 131.616 185 143.304 175.604 152.784 164 152.784ZM326 300 290 300 290 232.752C290 192.336 242 195.396 242 232.752L242 300 206 300 206 168 242 168 242 189.18C258.752 158.148 326 155.856 326 218.892L326 300Z" fill="#2C3E50"/></g></svg>