<svg width="851" height="850" xmlns="http://www.w3.org/2000/svg" xmlns:xlink="http://www.w3.org/1999/xlink" xml:space="preserve" overflow="hidden"><defs><clipPath id="clip0"><rect x="1303" y="159" width="851" height="850"/></clipPath></defs><g clip-path="url(#clip0)" transform="translate(-1303 -159)"><path d="M2012.17 159 1444.83 159C1366.51 159 1303 222.432 1303 300.667L1303 867.334C1303 945.569 1366.51 1009 1444.83 1009L2012.17 1009C2090.49 1009 2154 945.569 2154 867.334L2154 300.667C2154 222.432 2090.49 159 2012.17 159ZM1586.67 849.625 1498.02 849.625 1498.02 495.458 1586.67 495.458 1586.67 849.625ZM1587.18 424.785C1575.71 436.472 1560.75 442.333 1542.34 442.333 1524.15 442.333 1509.28 436.295 1497.68 424.218 1486.09 412.141 1480.29 397.319 1480.29 379.788 1480.29 361.725 1486.09 346.992 1497.68 335.552 1509.28 324.095 1524.15 318.375 1542.34 318.375 1560.75 318.375 1575.71 324.095 1587.18 335.534 1598.65 346.974 1604.4 361.725 1604.4 379.788 1604.4 398.098 1598.65 413.097 1587.18 424.785ZM1994.44 849.625 1905.79 849.625 1905.79 652.833C1905.79 597.954 1874.13 566.292 1834.88 566.292 1815.96 566.292 1794.56 577.767 1782.31 592.306 1770.06 606.844 1763.96 625.279 1763.96 647.644L1763.96 849.625 1675.31 849.625 1675.31 495.458 1763.96 495.458 1763.96 551.487 1765.34 551.487C1791.44 508.368 1829.4 486.959 1879.27 486.817 1950.11 486.604 1994.44 539.729 1994.44 632.769L1994.44 849.625Z" fill="#FFFFFF" fill-rule="evenodd"/></g></svg>