<svg width="248" height="248" xmlns="http://www.w3.org/2000/svg" xmlns:xlink="http://www.w3.org/1999/xlink" xml:space="preserve" overflow="hidden"><defs><clipPath id="clip0"><rect x="660" y="51" width="248" height="248"/></clipPath></defs><g clip-path="url(#clip0)" transform="translate(-660 -51)"><path d="M814.91 206.195C812.565 206.195 810.213 207.09 808.417 208.871L805.335 212.193 847.33 254.375 850.592 251.294C854.154 247.694 854.154 241.9 850.592 238.3L850.592 238.15 821.41 208.871C819.607 207.09 817.262 206.195 814.91 206.195ZM784 132.141 784 144.706C801.247 148.742 813.888 163.494 815.218 181.155L827.535 181.155C826.092 156.723 808.094 136.455 784 132.141ZM698.192 118.223C695.487 120.936 692.834 123.581 691.113 125.212 686.889 129.165 684.364 134.591 684.064 140.363 683.68 149.779 685.364 159.158 688.986 167.861 692.458 175.646 696.719 183.064 701.702 189.993 719.024 215.98 740.931 238.601 766.354 256.742 770.6 259.884 775.065 262.709 779.716 265.212 790.23 270.736 801.751 274.087 813.587 275.064 821.681 275.65 829.609 272.539 835.141 266.595L840.927 260.808 798.812 218.843 792.47 225.367C790.703 227.163 787.818 227.185 786.021 225.419 786.006 225.404 785.984 225.389 785.969 225.367L733.633 173.031C731.83 171.227 731.83 168.304 733.633 166.5L740.156 160.158ZM714.357 105.815C711.93 105.838 709.608 106.808 707.894 108.529L704.655 111.79 746.777 153.815 750.129 150.613C751.79 148.892 752.714 146.6 752.722 144.21 752.729 141.783 751.76 139.453 750.039 137.747L720.85 108.529C719.129 106.8 716.792 105.831 714.357 105.815ZM784 102.028 784 114.345C817.488 114.383 844.632 141.512 844.685 175 844.692 177.059 844.587 179.111 844.377 181.155L856.694 181.155C856.965 179.126 856.965 177.067 856.965 175 856.935 134.711 824.289 102.065 784 102.028ZM784 73.3952 784 85.7125C785.015 85.7125 786.029 85.7125 787.081 85.7125 787.089 85.7125 787.096 85.7125 787.111 85.7125 836.418 85.7125 876.399 125.686 876.399 175 876.399 177.059 876.151 179.126 876.151 181.155L888.468 181.155C888.679 179.126 888.679 177.059 888.679 175 888.679 118.884 843.189 73.3952 787.081 73.3952ZM701.333 51 866.667 51C889.498 51 908 69.5023 908 92.3334L908 257.667C908 280.498 889.498 299 866.667 299L701.333 299C678.502 299 660 280.498 660 257.667L660 92.3334C660 69.5023 678.502 51 701.333 51Z" fill="#FFFFFF" fill-rule="evenodd"/></g></svg>