<svg width="330" height="330" xmlns="http://www.w3.org/2000/svg" xmlns:xlink="http://www.w3.org/1999/xlink" xml:space="preserve" overflow="hidden"><defs><clipPath id="clip0"><rect x="2371" y="1091" width="330" height="330"/></clipPath></defs><g clip-path="url(#clip0)" transform="translate(-2371 -1091)"><path d="M2577.13 1297.51C2574.01 1297.51 2570.88 1298.7 2568.49 1301.07L2564.39 1305.49 2620.27 1361.62 2624.61 1357.52C2629.35 1352.73 2629.35 1345.02 2624.61 1340.23L2624.61 1340.03 2585.78 1301.07C2583.38 1298.7 2580.26 1297.51 2577.13 1297.51ZM2536 1198.97 2536 1215.69C2558.95 1221.06 2575.77 1240.69 2577.54 1264.19L2593.93 1264.19C2592.01 1231.68 2568.06 1204.71 2536 1198.97ZM2421.82 1180.45C2418.22 1184.06 2414.69 1187.58 2412.4 1189.75 2406.78 1195.01 2403.42 1202.23 2403.02 1209.91 2402.51 1222.44 2404.75 1234.92 2409.57 1246.5 2414.19 1256.86 2419.86 1266.73 2426.49 1275.95 2449.54 1310.53 2478.69 1340.63 2512.52 1364.77 2518.17 1368.95 2524.11 1372.71 2530.3 1376.04 2544.29 1383.39 2559.62 1387.85 2575.37 1389.15 2586.14 1389.93 2596.69 1385.79 2604.05 1377.88L2611.75 1370.18 2555.71 1314.34 2547.27 1323.02C2544.92 1325.41 2541.08 1325.44 2538.69 1323.09 2538.67 1323.07 2538.64 1323.05 2538.62 1323.02L2468.98 1253.38C2466.58 1250.98 2466.58 1247.09 2468.98 1244.69L2477.66 1236.25ZM2443.33 1163.94C2440.1 1163.97 2437.01 1165.26 2434.73 1167.55L2430.42 1171.89 2486.47 1227.81 2490.93 1223.55C2493.14 1221.26 2494.37 1218.21 2494.38 1215.03 2494.39 1211.8 2493.1 1208.7 2490.81 1206.43L2451.97 1167.55C2449.68 1165.25 2446.57 1163.96 2443.33 1163.94ZM2536 1158.9 2536 1175.29C2580.56 1175.34 2616.68 1211.44 2616.75 1256 2616.76 1258.74 2616.62 1261.47 2616.34 1264.19L2632.73 1264.19C2633.09 1261.49 2633.09 1258.75 2633.09 1256 2633.05 1202.39 2589.61 1158.95 2536 1158.9ZM2536 1120.8 2536 1137.19C2537.35 1137.19 2538.7 1137.19 2540.1 1137.19 2540.11 1137.19 2540.12 1137.19 2540.14 1137.19 2605.75 1137.19 2658.95 1190.38 2658.95 1256 2658.95 1258.74 2658.62 1261.49 2658.62 1264.19L2675.01 1264.19C2675.29 1261.49 2675.29 1258.74 2675.29 1256 2675.29 1181.33 2614.76 1120.8 2540.1 1120.8ZM2426 1091 2646 1091C2676.38 1091 2701 1115.62 2701 1146L2701 1366C2701 1396.38 2676.38 1421 2646 1421L2426 1421C2395.62 1421 2371 1396.38 2371 1366L2371 1146C2371 1115.62 2395.62 1091 2426 1091Z" fill="#FFFFFF" fill-rule="evenodd"/></g></svg>