<svg width="242" height="242" xmlns="http://www.w3.org/2000/svg" xmlns:xlink="http://www.w3.org/1999/xlink" xml:space="preserve" overflow="hidden"><g transform="translate(-940 -54)"><path d="M1013.11 227.323 1013.11 237.407 1108.89 237.407 1108.89 227.323ZM1013.11 207.157 1013.11 217.24 1108.89 217.24 1108.89 207.157ZM1013.11 186.99 1013.11 197.073 1108.89 197.073 1108.89 186.99ZM1013.11 166.823 1013.11 176.907 1108.89 176.907 1108.89 166.823ZM1013.11 146.657 1013.11 156.74 1045.88 156.74 1045.88 146.657ZM1076.12 94.986 1107.63 126.49 1076.12 126.49ZM997.977 88.6794 1061 88.6794 1061 141.619 1124.02 141.619 1124.02 260.096 997.977 260.096ZM982.856 73.558 982.856 275.225 1139.14 275.225 1139.14 129.013 1076.12 73.558ZM980.333 54.0001 1141.67 54.0001C1163.95 54.0001 1182 72.0547 1182 94.3334L1182 255.667C1182 277.945 1163.95 296 1141.67 296L980.333 296C958.055 296 940 277.945 940 255.667L940 94.3334C940 72.0547 958.055 54.0001 980.333 54.0001Z" fill="#FFFFFF" fill-rule="evenodd"/></g></svg>