<svg width="330" height="330" xmlns="http://www.w3.org/2000/svg" xmlns:xlink="http://www.w3.org/1999/xlink" xml:space="preserve" overflow="hidden"><defs><clipPath id="clip0"><rect x="1165" y="1091" width="330" height="330"/></clipPath></defs><g clip-path="url(#clip0)" transform="translate(-1165 -1091)"><path d="M1264.69 1327.35 1264.69 1341.1 1395.31 1341.1 1395.31 1327.35ZM1264.69 1299.85 1264.69 1313.6 1395.31 1313.6 1395.31 1299.85ZM1264.69 1272.35 1264.69 1286.1 1395.31 1286.1 1395.31 1272.35ZM1264.69 1244.85 1264.69 1258.6 1395.31 1258.6 1395.31 1244.85ZM1264.69 1217.35 1264.69 1231.1 1309.38 1231.1 1309.38 1217.35ZM1350.62 1146.89 1393.59 1189.85 1350.62 1189.85ZM1244.06 1138.29 1330 1138.29 1330 1210.48 1415.94 1210.48 1415.94 1372.04 1244.06 1372.04ZM1223.44 1117.67 1223.44 1392.67 1436.56 1392.67 1436.56 1193.29 1350.62 1117.67ZM1220 1091 1440 1091C1470.38 1091 1495 1115.62 1495 1146L1495 1366C1495 1396.38 1470.38 1421 1440 1421L1220 1421C1189.62 1421 1165 1396.38 1165 1366L1165 1146C1165 1115.62 1189.62 1091 1220 1091Z" fill="#FFFFFF" fill-rule="evenodd"/></g></svg>